<svg xmlns="http://www.w3.org/2000/svg" xmlns:xlink="http://www.w3.org/1999/xlink" width="22" height="16"><defs><rect id="b" x="2" y="2" width="18" height="12" rx="2"/><clipPath id="a"><rect width="19.268" height="13.172" x="1.401" y="1.427" rx="2" ry="2.557" opacity=".7" fill="#d4e8fa" stroke="#7fd176"/></clipPath></defs><g clip-path="url(#a)" transform="matrix(1.19273 0 0 1.28191 -2.092 -2.224)" fill="none" fill-rule="evenodd"><use xlink:href="#b" width="100%" height="100%" fill="#fff"/><rect x="1" y="1" width="20" height="14" rx="1.677" ry="1.56" stroke="#fff" stroke-width="1.617"/><path d="M2 4.009C2 2.899 2.898 2 3.998 2H8v12H3.998A2.005 2.005 0 0 1 2 11.991V4.01z" opacity=".7" fill="#099b3a"/><path fill="#fff" d="M8 2h6v12H8z"/><path d="M14 2h4.002C19.106 2 20 2.902 20 4.009v7.982c0 1.11-.898 2.009-1.998 2.009H14V2z" opacity=".7" fill="#d0021b"/></g></svg>